PathFileType	3	(X/Y/Z)	.\ExampleData\generated\LevelGround_ccw_fast_01.trc
DataRate	CameraRate	NumFrames	NumMarkers	Units	OrigDataRate	OrigDataStartFrame	OrigNumFrames
200.0	200.0	4	28	mm	200.0	4464	5952	
Frame#	Time	L_ASIS	R_ASIS	L_PSIS	R_PSIS	R_Thigh_Upper	R_Knee_Lat	R_Thigh_Front	R_Thigh_Rear	L_Thigh_Upper	L_Thigh_Front	L_Thigh_Rear	L_Knee_Lat	L_Shank_Upper	L_Shank_Front	L_Shank_Rear	L_Ankle_Lat	R_Shank_Upper	R_Shank_Rear	R_Shank_Front	R_Ankle_Lat	R_Heel	R_Toe_Tip	R_Toe_Med	R_Toe_Lat	L_Heel	L_Toe_Tip	L_Toe_Med	L_Toe_Lat	
		X1	Y1	Z1	X2	Y2	Z2	X3	Y3	Z3	X4	Y4	Z4	X5	Y5	Z5	X6	Y6	Z6	X7	Y7	Z7	X8	Y8	Z8	X9	Y9	Z9	X10	Y10	Z10	X11	Y11	Z11	X12	Y12	Z12	X13	Y13	Z13	X14	Y14	Z14	X15	Y15	Z15	X16	Y16	Z16	X17	Y17	Z17	X18	Y18	Z18	X19	Y19	Z19	X20	Y20	Z20	X21	Y21	Z21	X22	Y22	Z22	X23	Y23	Z23	X24	Y24	Z24	X25	Y25	Z25	X26	Y26	Z26	X27	Y27	Z27	X28	Y28	Z28	
4464	22.32	-403.17773	913.86128	-6022.8648	-295.10237	947.56115	-6269.1193	-220.00328	977.79992	-6010.0891	-170.65187	995.98474	-6124.9142	-228.06154	794.05262	-6343.2686	-346.09254	500.641	-6413.0993	-303.83537	766.92108	-6371.519	-243.90261	731.49414	-6364.0355	-322.84711	761.94441	-5944.0122	-333.48643	686.61217	-5972.4905	-268.79215	706.4128	-5936.7139	-223.10392	400.32011	-5986.0569	-112.22333	349.36389	-5896.7232	-79.493528	295.17175	-5908.1649	-49.040274	321.43209	-5882.1061	115.45825	160.32072	-5854.0193	-295.43632	358.49553	-6442.7334	-284.87256	293.66974	-6425.0207	-333.26098	301.23119	-6460.067	-344.31182	59.180271	-6469.3612	-310.2984	19.756166	-6406.7962	-500.01837	41.007499	-6510.6619	-515.6018	17.630451	-6486.7006	-418.01815	10.703177	-6553.8801	179.23914	205.42171	-5847.8972	133.58149	47.586827	-5971.2908	164.92374	49.600787	-5988.8819	138.02763	34.222815	-5878.2295
4465	22.325	-408.9219	913.90798	-6026.953	-301.92627	948.30598	-6273.3688	-226.02204	977.99494	-6014.1051	-177.26534	996.75736	-6129.1312	-235.2093	795.37745	-6347.9821	-352.98079	501.49023	-6417.533	-311.11231	768.3003	-6376.0931	-251.21709	732.86607	-6368.7936	-329.4117	761.2091	-5949.0464	-341.40458	686.08151	-5977.4917	-276.18443	704.81457	-5942.3397	-235.83127	398.65395	-5992.1923	-123.29881	350.63999	-5903.2787	-90.111089	296.60344	-5914.2909	-59.613377	323.98057	-5889.2125	107.23688	165.89081	-5860.0217	-300.31906	359.70038	-6446.6146	-288.71165	295.15313	-6428.3774	-337.43005	301.6774	-6463.1188	-344.52302	59.093282	-6469.5696	-310.04663	20.120143	-6407.0687	-500.20294	39.782561	-6510.8219	-515.47221	16.487066	-6486.7116	-417.80695	10.053352	-6554.2525	169.77689	213.30816	-5856.1495	127.53964	49.334942	-5973.1104	158.43424	52.191583	-5991.4343	134.42878	39.405826	-5880.5404
4466	22.33	-414.57596	914.0871	-6030.8513	-308.77161	949.11615	-6277.489	-231.92185	978.3224	-6018.0765	-183.82134	997.64687	-6133.3243	-242.16909	796.67742	-6352.5771	-359.42312	502.19443	-6421.7172	-318.12844	769.55337	-6380.6149	-258.25358	734.16511	-6373.3823	-335.89937	760.61919	-5953.9694	-349.33105	685.72541	-5982.3877	-283.55034	703.347	-5947.9326	-248.80279	397.18074	-5998.46	-134.75356	351.93452	-5910.09	-101.11613	298.06774	-5920.7671	-70.575953	326.54684	-5896.6334	98.561232	171.61677	-5866.5143	-304.87696	360.78291	-6450.1827	-292.31206	296.5067	-6431.4369	-341.27652	302.06023	-6465.9389	-344.64224	59.040748	-6469.6715	-309.80077	20.424601	-6407.2737	-500.2748	38.886217	-6510.9237	-515.26388	15.68435	-6486.6987	-417.55056	9.6251709	-6554.5551	159.93076	221.09367	-5864.9253	120.70257	51.199073	-5975.1332	151.0872	54.673664	-5994.2363	129.90314	44.968043	-5883.2067
4467	22.335	-420.14816	914.40319	-6034.5554	-315.64387	949.97756	-6281.4812	-237.70197	978.78151	-6022.0226	-190.3158	998.64936	-6137.5101	-248.94338	797.9253	-6357.0476	-365.41995	502.74632	-6425.6419	-324.88084	770.64678	-6385.0767	-265.00878	735.36155	-6377.7891	-342.31202	760.19255	-5958.7786	-357.25903	685.56369	-5987.1747	-290.88849	702.03614	-5953.4909	-261.9901	395.92675	-6004.8421	-146.5586	353.24901	-5917.1336	-112.47778	299.56964	-5927.5739	-81.900422	329.1178	-5904.3393	89.444795	177.44637	-5873.4935	-309.11607	361.73053	-6453.4199	-295.68478	297.71581	-6434.1817	-344.81088	302.3671	-6468.5199	-344.69566	59.014059	-6469.6861	-309.57332	20.676957	-6407.4179	-500.26676	38.26189	-6510.9784	-515.00802	15.163183	-6486.6656	-417.27468	9.3733346	-6554.7955	149.75303	228.69487	-5874.2086	113.02444	53.16641	-5977.3951	142.84879	57.015023	-5997.3128	124.3969	50.826996	-5886.2589
